<svg width="266" height="268" viewBox="0 0 266 268" fill="none" xmlns="http://www.w3.org/2000/svg">
<g filter="url(#filter0_d_203_681)">
<path d="M37.9762 208.044C38.3205 208.791 38.6837 209.528 39.0781 210.246C38.6054 209.339 38.2454 208.612 37.9762 208.044ZM37.2656 206.391C37.2656 206.398 37.2688 206.407 37.2719 206.423C37.275 206.435 37.2813 206.454 37.2907 206.476C37.2938 206.479 37.2938 206.482 37.2938 206.485C37.3094 206.529 37.3345 206.589 37.3658 206.661C37.3157 206.507 37.2781 206.413 37.2656 206.391Z" fill="#00BFAF"/>
<path d="M248.369 12.2485C245.089 12.214 243.201 13.6128 234.183 20.9864C234.18 20.9895 234.176 20.9927 234.173 20.9958C226.42 26.6475 214.975 35.7554 197.755 49.8344C178.755 64.0546 143.993 93.2602 129.994 107.229C122.907 114.302 117.876 120.691 114.496 125.997C113.059 128.033 111.841 129.98 110.883 131.818C110.861 131.853 110.84 131.891 110.821 131.934C110.818 131.941 110.815 131.947 110.811 131.953C110.539 132.552 110.116 133.525 109.544 134.716C107.731 138.521 104.404 144.58 99.5048 148.077C99.4766 148.093 99.4453 148.115 99.414 148.14C98.6439 148.764 97.8801 149.379 96.988 149.896C94.8719 151.129 92.0234 151.831 86.6017 150.909C74.021 147.124 56.6479 150.135 43.8293 162.852C35.415 171.201 31.4083 189.982 36.7235 204.977C37.1805 206.858 37.6344 208.405 38.0007 209.866C38.4107 214.436 37.1524 222.314 25.1571 226.094C18.934 228.054 14.4108 231.394 16.5707 236.949C18.3831 241.612 26.3998 243.93 34.7483 239.21C37.7972 238.046 42.0075 234.333 45.0219 232.194C51.9399 227.279 50.7191 225.081 60.326 225.949C61.4466 226.05 62.3356 226.097 63.0211 226.097H63.0243C63.6848 226.131 64.5331 226.153 65.2937 226.153C66.0513 226.153 67.438 226.122 68.6494 226.072H68.6651C69.0689 226.056 69.4508 226.037 69.7857 226.018C84.2602 225.178 99.2418 216.888 105.164 203.572C109.922 192.877 111.24 183.612 109.813 175.831C109.791 175.708 109.769 175.586 109.744 175.464C109.741 175.451 109.741 175.442 109.738 175.429C109.083 171.879 109.725 166.56 115.091 160.977C115.735 160.306 116.39 159.603 117.016 158.92C120.23 156.194 126.56 151.311 132.955 150.056C135.253 149.605 137.713 149.027 139.416 148.654H139.425C142.071 148.447 146.131 145.126 147.32 143.956C163.954 127.559 171.84 118.58 174.338 115.754C174.341 115.751 174.344 115.748 174.344 115.745C179.424 110.438 184.727 104.466 190.236 97.8016C204.83 80.1503 229.725 53.9838 243.129 35.2693C247.568 30.3327 253.196 22.5044 254.188 19.942C255.378 16.8621 251.052 12.2768 248.369 12.2485ZM93.7043 194.31C89.4283 206.896 75.2888 213.332 64.1762 210.616C55.0608 208.386 43.2564 194.31 51.439 179.459C57.9344 167.67 67.8324 162.272 80.2409 165.026C93.3349 167.933 97.4137 183.389 93.7043 194.31ZM135.704 134.422C132.063 134.422 129.114 131.467 129.114 127.82C129.114 124.175 132.063 121.221 135.704 121.221C139.341 121.221 142.29 124.175 142.29 127.82C142.29 131.467 139.341 134.422 135.704 134.422Z" fill="#00BFAF"/>
<path d="M145.723 151.696C145.723 151.725 146.217 152.151 146.377 152.151C146.533 152.151 146.602 151.364 146.602 151.336C146.602 151.308 146.183 151.496 146.026 151.552C145.876 151.605 145.723 151.668 145.723 151.696Z" fill="#00BFAF"/>
<path d="M135.816 263.956C102.535 262.964 76.2625 253.624 55.7215 237.682C55.5869 237.582 55.4554 237.479 55.3239 237.375C55.3177 237.369 55.3083 237.362 55.302 237.356C55.2895 237.347 55.2801 237.337 55.2707 237.325C54.8951 236.97 54.6885 236.582 54.6885 236.174C54.6885 236.077 54.701 235.982 54.726 235.888V235.885C54.726 234.822 56.6574 233.028 58.8393 233.025C60.7331 233.022 61.6315 233.116 63.638 233.188H63.6599C68.9532 233.116 75.7303 232.658 76.0809 232.915C76.1905 232.915 81.7029 235.957 81.8094 235.957C101.164 246.129 126.138 249.632 145.145 247.618C221.236 239.57 252.789 174.253 248.711 124.413C246.908 102.393 239.605 82.9322 227.202 67.4167C227.065 67.2411 226.914 67.0561 226.78 66.8961C226.767 66.8773 226.755 66.8616 226.739 66.8428C226.094 66.043 228.865 63.1513 232.611 58.6538C235.541 55.1348 238.149 51.9828 239.263 53.0397C239.298 53.0774 239.57 53.4569 239.605 53.4977C239.614 53.5071 240.541 54.5452 240.547 54.5577C252.373 70.5217 264.973 99.7148 265.583 130.818C267.067 206.385 199.69 265.859 135.816 263.956Z" fill="#00BFAF"/>
<path d="M168.063 178.283C164.128 178.472 161.783 178.352 161.026 178.07C159.761 177.681 154.518 171.986 148.367 165.001C148.317 164.948 148.273 164.894 148.226 164.844C147.318 163.731 146.423 162.73 145.578 161.821C142.898 158.948 140.67 156.997 139.765 155.307C139.527 154.864 139.618 154.548 139.987 154.259C140.015 154.212 140.05 154.165 140.09 154.115C140.657 153.412 143.528 152.368 146.113 151.521C148.849 150.132 152.255 147.914 155.927 144.047C156.027 143.944 156.121 143.849 156.208 143.774C156.69 143.04 157.36 142.507 157.846 142.507C158.7 142.507 159.332 144.781 160.844 147.626C160.847 147.632 160.851 147.638 160.854 147.644C163.946 153.168 171.516 168.642 174.937 174.457C175.078 174.695 175.172 174.915 175.222 175.122L175.225 175.125C175.228 175.131 175.228 175.134 175.228 175.141C176.389 178.754 171.753 178.105 168.063 178.283Z" fill="#00BFAF"/>
<path d="M225.552 197.252C224.194 198.782 223.355 200.385 219.561 200.573C217.467 200.673 210.37 200.987 205.809 201.028C202.623 201.175 199.042 201.423 194.171 201.734C185.378 202.414 186.452 202.311 180.454 202.812C139.798 206.984 140.878 207.523 124.324 209.716C122.86 209.941 121.942 210.073 121.463 209.919C119.059 209.135 117.81 206.435 117.813 205.412C117.82 203.455 122.609 196.123 124.675 187.595C124.728 187.388 124.775 187.184 124.822 186.977C124.822 186.971 124.825 186.965 124.828 186.958C124.863 186.861 124.904 186.764 124.954 186.673C125.577 185.421 127.126 184.684 128.835 184.317C129.045 184.274 129.305 184.223 129.577 184.198C129.58 184.195 129.583 184.195 129.587 184.195C131.768 183.734 143.685 182.05 196.854 178.133C211.541 177.051 221.301 176.549 227.44 176.771C230.892 176.731 234.289 176.74 235.034 176.906C236.23 177.17 237.244 178.198 237.284 179.553V179.556C237.929 181.849 227.674 194.862 225.552 197.252Z" fill="#00BFAF"/>
<path d="M109.485 122.845L109.306 123.034L109.278 122.999C109.344 122.955 109.413 122.902 109.485 122.845Z" fill="#00BFAF"/>
<path d="M77.6797 103.014C77.8957 102.951 78.1148 102.888 78.3339 102.823C77.9771 102.913 77.7454 102.989 77.6797 103.014Z" fill="#00BFAF"/>
<path d="M29.4903 211.262C29.1052 211.472 28.6795 211.425 28.379 211.274C28.3759 211.274 28.3759 211.274 28.3759 211.274C28.3571 211.274 28.3352 211.271 28.3227 211.262C28.1035 211.115 27.7592 210.691 26.9516 209.468C11.9356 189.552 2 160.321 2 133.336C2 106.527 7.60323 90.494 16.9722 70.7915C16.9722 70.7884 17.9989 68.8689 17.9989 68.8689C18.697 67.8873 18.5812 67.5266 19.4796 67.42C19.7269 67.3917 19.9522 67.4262 20.1651 67.5109H20.1682C20.2058 67.5235 20.2402 67.5391 20.2747 67.5548C21.2169 68.0064 21.8304 69.4648 22.2217 70.917C22.2749 71.1302 22.3281 71.3529 22.3814 71.5819C22.7946 73.3602 23.1765 75.5839 23.8557 78.0082C24.6602 80.8811 25.6087 83.5972 26.2567 85.3535C26.7012 86.5454 27.0017 87.2949 27.0205 87.3514C27.0236 87.3545 27.0236 87.3545 27.0236 87.3545C27.1551 87.7842 27.2145 88.1449 27.1958 88.5526V88.562C27.1864 88.7973 27.13 89.0576 27.0142 89.3618C26.5728 90.5411 26.1909 91.5698 25.8967 92.0779C19.9585 108.409 19.5046 114.283 18.1586 133.38C17.423 143.815 19.5328 159.18 26.4883 177.822C26.4914 177.825 26.4914 177.825 26.4914 177.829C27.5839 180.598 28.3696 181.837 28.2663 182.775C28.1161 184.151 28.019 183.995 27.8907 185.908C27.8312 186.745 27.7436 191.199 27.731 190.314C27.7279 194.128 28.0128 197.468 28.3696 200.285C28.3696 200.291 28.3696 200.294 28.3727 200.3C28.8892 203.264 29.6593 206.664 30.6453 209.136C30.6485 209.145 30.6547 209.154 30.6547 209.167C30.6641 209.179 30.6704 209.195 30.6735 209.217C30.7612 209.59 31.1212 210.371 29.4903 211.262Z" fill="#00BFAF"/>
<path d="M27.2003 88.5572C27.2003 88.5617 27.1958 88.5617 27.1958 88.5662V88.5527C27.2003 88.5527 27.2003 88.5572 27.2003 88.5572Z" fill="#00BFAF"/>
<path d="M213.066 28.131C209.595 31.0509 202.696 37.2076 201.062 37.0633C199.556 36.9316 195.965 34.4633 193.78 33.0362C179.707 24.7124 170.403 19.8009 150.661 16.8025C132.931 14.1116 111.569 16.743 97.6396 21.2122C96.5847 21.5541 95.5705 21.9022 94.6063 22.2598C94.5907 22.2661 94.575 22.2723 94.5625 22.2755C93.6798 22.6048 92.8377 22.9404 92.0426 23.2822C91.5794 23.6021 91.0628 23.5112 90.6966 23.2446C90.6403 23.207 90.587 23.163 90.5401 23.1129C87.9263 20.7512 80.8174 14.2652 80.8174 12.6438C80.8174 11.3328 81.1961 10.9313 84.5111 9.6266C85.3219 9.30983 86.3079 8.9366 87.51 8.48497C87.5413 8.47242 87.5726 8.45988 87.607 8.44734C87.6383 8.43479 87.6696 8.42538 87.7009 8.41597C107.472 1.22434 130.771 -2.62395 156.355 2.03665C182.211 6.7443 196.451 15.5417 211.539 25.4557C211.554 25.4651 211.57 25.4777 211.586 25.4871C212.966 26.3935 214.149 27.2215 213.066 28.131Z" fill="#00BFAF"/>
<path d="M87.7046 11.9285C87.6729 11.938 87.6411 11.9475 87.6094 11.9602C87.6221 11.9539 87.6379 11.9507 87.6506 11.9443C87.6697 11.938 87.6856 11.9316 87.7046 11.9285Z" fill="#00BFAF"/>
<path d="M119.038 24.2231C118.885 24.3392 118.731 24.4583 118.578 24.5744C118.575 24.5775 118.569 24.5807 118.566 24.5838C118.562 24.5869 118.556 24.5932 118.553 24.5963C115.873 26.7416 115.942 28.7049 115.742 31.8131C115.532 35.0278 115.542 38.1391 115.542 38.1391C115.254 44.0511 115.21 52.1334 115.363 61.9407C115.592 76.4463 115.442 84.0739 116.653 89.2583C116.656 89.2614 116.656 89.2614 116.653 89.2645C116.922 91.6889 117.232 93.8781 117.473 94.22C118.181 95.2111 119.207 97.9428 122.895 97.9428H137.103C138.834 96.7855 155.494 81.8189 159.291 77.9674C160.43 76.8101 161.394 71.6822 160.887 68.8689C160.433 66.3442 159.394 63.9166 157.763 61.8372C156.333 60.0182 154.727 58.5409 151.158 57.4119C153.537 56.471 157.679 49.7184 158.339 47.156C158.928 44.8791 158.918 39.5441 158.339 36.9817C157.738 34.3159 156.445 32.0859 154.777 30.2198C154.774 30.2167 154.774 30.2167 154.774 30.2135C154.173 28.5858 145.918 20.9739 131.015 21.714C124.216 22.0528 120.866 22.956 119.038 24.2231ZM132.498 37.7251C135.244 37.5808 139.022 37.9728 140.838 40.2279C142.011 41.6863 142.193 42.5644 142.193 45.2868C142.193 46.8675 140.44 49.7623 139.188 50.6311C136.286 52.6415 134.458 53.344 132.621 53.344C132.417 53.344 132.214 53.3346 132.01 53.3189L132.498 37.7251ZM140.86 81.5084C140.168 82.1011 139.025 82.6124 137.523 83.0765C136.02 83.5439 134.154 83.9641 132.01 84.3781L131.675 73.7083L131.591 67.0906C135.911 67.0906 140.046 67.5109 142.193 69.9039C143.232 71.0612 144.225 71.3717 144.225 74.9472C144.225 79.498 141.914 80.6082 140.86 81.5084Z" fill="#00BFAF"/>
<path d="M204.695 124.702C204.667 124.768 204.639 124.831 204.614 124.897C204.611 124.853 204.607 124.809 204.607 124.762C204.639 124.743 204.667 124.721 204.695 124.702Z" fill="#00BFAF"/>
<path d="M228.308 160.83C227.873 163.442 226.73 166.613 225.381 168.272C224.639 169.266 223.415 170.508 222.179 171.437C220.651 172.553 218.626 173.419 218.175 173.588C214.15 175.106 214.628 174.793 208.124 175.069C207.05 175.069 189.927 175.1 190.87 167.507C191.039 166.149 191.195 164.543 191.702 162.981C191.705 162.969 191.712 162.953 191.718 162.934C192.15 161.4 193.13 158.989 194.582 158.575C195.819 158.223 197.102 158.803 198.473 159.534C198.476 159.534 198.479 159.537 198.486 159.541C200.57 160.369 202.345 161.871 207.917 162.09C210.528 162.194 213.664 160.114 213.912 158.477C214.315 155.786 213.727 154.877 212.556 153.418C211.098 151.606 205.986 149.012 202.333 147.306C193.311 142.385 190.234 134.713 190.337 128.76C190.312 127.807 190.328 126.825 190.397 126.007C190.516 124.614 191.02 122.193 191.611 120.59C191.615 120.584 191.615 120.581 191.618 120.575C192.522 117.993 193.872 116.209 194.689 115.287C197.271 111.79 202.959 109.638 207.288 109.4C216.792 108.873 221.6 111.407 224.264 114.49C224.267 114.493 224.27 114.496 224.27 114.5C224.824 115.108 225.29 115.77 225.647 116.472C226.834 118.815 223.85 122.118 222.426 123.978C222.088 124.42 220.266 127.064 218.657 125.847C217.821 125.298 217.108 124.856 216.453 124.492C216.441 124.486 216.432 124.479 216.419 124.473C215.151 123.862 213.264 122.986 211.126 122.986C207.228 122.986 205.429 124.476 204.931 125.869C204.925 125.881 204.921 125.894 204.915 125.903C204.915 125.906 204.915 125.906 204.915 125.906C204.43 127.38 204.63 128.786 204.718 129.253C205.2 131.8 208.891 133.311 212.112 135.108C213.361 135.689 214.585 136.244 216.172 137.1C223.666 141.133 225.34 144.075 227.566 149.601C228.555 152.06 228.771 158.038 228.308 160.83Z" fill="#00BFAF"/>
<path d="M121.342 109.858C121.132 109.478 120.581 108.882 119.902 108.255C116.421 103.933 105.609 95.2581 101.336 90.0518C101.336 90.0486 101.333 90.0455 101.33 90.0424C101.22 89.8573 99.4733 87.2636 99.4733 85.4225C99.4733 83.525 100.447 79.4823 100.566 78.9146C100.569 78.9084 100.569 78.9021 100.569 78.8958C102.306 72.7392 102.816 66.1842 102.172 60.2283C102.165 60.1405 102.156 60.0527 102.143 59.9649C101.621 54.884 99.3919 49.7937 96.5903 45.2052V45.2021C92.8308 37.3111 83.1707 27.8205 78.4659 22.9811C71.1973 15.5072 62.4293 8.3501 56.7322 5.67481C56.5287 5.57758 56.3284 5.48663 56.1343 5.39881C50.8598 2.62315 46.3365 1.51288 43.5443 2.69528C39.3747 4.45791 38.4325 6.91052 39.2057 9.65482C39.4217 14.0081 51.1603 24.4928 51.8395 27.3877C52.4719 30.0755 51.5578 31.4618 50.6782 32.1769C50.6782 32.1769 50.6782 32.1769 50.6751 32.1769C38.8926 37.2923 24.4526 55.0534 28.3967 73.4198C28.8694 76.5969 30.3094 81.1007 33.3645 86.7492C41.4094 101.615 59.7248 107.581 75.3293 103.651C75.3888 103.635 75.4357 103.62 75.4702 103.598C76.1745 103.428 76.9038 103.237 77.6582 103.021C77.6645 103.017 77.6739 103.017 77.6802 103.014C77.7459 102.989 77.9775 102.914 78.3344 102.823C78.3375 102.823 78.3438 102.82 78.3469 102.82C79.3048 102.575 81.1579 102.221 83.202 102.469C83.4086 102.494 83.6027 102.509 83.7811 102.509C85.8721 102.757 87.7253 103.105 88.7426 103.629C93.0906 105.871 100.187 115.274 105.214 119.784C105.217 119.787 105.221 119.791 105.224 119.794C106.529 121.277 108.485 123.441 109.052 123.14C109.121 123.103 109.196 123.055 109.277 122.999C109.343 122.955 109.412 122.902 109.484 122.845H109.487C110.191 122.287 111.206 121.208 112.035 120.161L118.556 113.301C118.562 113.298 118.568 113.292 118.574 113.283C119.967 111.994 121.617 110.356 121.342 109.858ZM66.4549 90.6634C52.7536 90.6634 42.3454 80.6083 42.3454 66.8805C42.3454 53.1527 52.7943 42.025 66.4956 42.025C80.1969 42.025 90.7241 53.0304 90.7241 66.7582C90.7241 80.4859 80.1562 90.6634 66.4549 90.6634Z" fill="#00BFAF"/>
</g>
<defs>
<filter id="filter0_d_203_681" x="0" y="0" width="265.607" height="268" filterUnits="userSpaceOnUse" color-interpolation-filters="sRGB">
<feFlood flood-opacity="0" result="BackgroundImageFix"/>
<feColorMatrix in="SourceAlpha" type="matrix" values="0 0 0 0 0 0 0 0 0 0 0 0 0 0 0 0 0 0 127 0" result="hardAlpha"/>
<feOffset dx="-2" dy="4"/>
<feComposite in2="hardAlpha" operator="out"/>
<feColorMatrix type="matrix" values="0 0 0 0 0 0 0 0 0 0 0 0 0 0 0 0 0 0 1 0"/>
<feBlend mode="normal" in2="BackgroundImageFix" result="effect1_dropShadow_203_681"/>
<feBlend mode="normal" in="SourceGraphic" in2="effect1_dropShadow_203_681" result="shape"/>
</filter>
</defs>
</svg>
