<svg width="778" height="696" viewBox="0 0 778 696" fill="none" xmlns="http://www.w3.org/2000/svg">
<g clip-path="url(#clip0_267_127)">
<path d="M575.625 320.324C575.625 331.446 584.944 335.654 596.667 341.366L600.575 343.169H600.273C621.916 353.089 648.969 366.315 648.969 407.796C648.969 446.271 622.817 463.405 586.747 463.405C553.982 463.405 538.652 453.485 535.346 446.872C533.843 443.265 538.352 416.813 546.768 414.108C550.075 414.108 554.885 415.611 557.891 416.813C557.891 416.813 559.092 417.415 559.393 417.415C565.405 420.12 572.92 424.328 587.648 424.328C591.556 424.328 605.984 422.525 605.984 407.495C605.984 396.073 594.262 390.061 581.036 383.448C559.695 372.627 534.145 360.002 534.145 320.926C534.145 276.439 565.706 264.114 593.361 264.114C622.217 264.114 638.749 277.941 640.252 286.057V285.757C641.455 294.774 628.529 315.816 621.616 314.012L621.917 314.313C619.512 313.11 618.009 312.209 616.807 311.307C610.795 307.399 605.384 304.093 595.465 304.093C583.742 304.093 575.625 310.104 575.625 320.324Z" fill="#008689"/>
<path d="M125.987 639.495C125.754 639.338 125.519 639.182 125.286 639.023L125.051 638.86C125.362 639.073 125.674 639.285 125.987 639.495ZM107.784 624.344L107.632 624.189C107.572 624.128 107.514 624.066 107.454 624.005C107.564 624.118 107.674 624.231 107.784 624.344ZM46.1182 188.753C43.7609 213.086 48.8195 237.597 60.3594 259.043C48.4676 292.821 42 329.155 42 367C42 415.296 52.5348 461.132 71.4316 502.335C62.0496 528.141 61.6304 556.536 70.0918 582.762C26.0076 522.202 0 447.638 0 367C0 302.31 16.7381 241.53 46.1182 188.753ZM658.812 144.406C705.98 206.149 734 283.302 734 367C734 390.674 731.757 413.825 727.475 436.251C715.467 436.741 701.018 437.973 683.792 439.896C689.162 416.462 692 392.062 692 367C692 297.619 670.259 233.316 633.218 180.531C642.32 168.157 650.856 156.101 658.812 144.406ZM367 0C449.647 0 525.913 27.3204 587.261 73.4209C575.588 81.4218 563.543 90.0027 551.15 99.1709C498.806 63.112 435.369 42 367 42C308.377 42 253.381 57.5218 205.894 84.6787C182.04 77.0501 156.922 76.9653 133.772 83.625C197.18 31.3783 278.426 0 367 0Z" fill="#31363A"/>
<path fill-rule="evenodd" clip-rule="evenodd" d="M400.709 159.793C411.23 152.279 418.444 142.059 420.548 128.833C420.849 125.827 421.149 122.52 421.149 119.214C421.149 79.2353 384.477 68.4141 354.418 68.4141C335.481 68.4141 318.949 72.9229 315.041 76.8306C314.44 77.1312 313.839 78.3335 313.839 78.6341C312.937 80.4377 312.336 82.2412 312.035 84.6459C310.232 96.0683 309.029 128.833 309.029 162.799C309.029 208.79 311.735 257.185 318.648 261.092C325.862 264.699 334.279 266.503 344.499 266.503C351.611 266.503 359.215 265.593 366.821 263.736L424.379 213.824C425.983 208.127 426.861 201.944 426.861 195.263C426.861 177.528 415.739 167.008 400.709 159.793ZM357.124 108.092C375.46 108.092 379.668 119.514 379.668 128.231C379.668 137.249 366.743 148.672 350.811 151.377C350.543 140.926 351.231 129.519 351.809 119.926C351.88 118.758 351.948 117.617 352.014 116.508C352.014 115.566 352.096 113.719 352.174 111.957C352.246 110.348 352.314 108.809 352.314 108.092H357.124ZM352.314 230.733H351.412C349.308 230.432 350.511 186.245 351.112 185.043C351.112 185.043 383.876 180.835 384.177 206.685C384.477 225.923 357.424 231.033 352.314 230.733Z" fill="#008689"/>
<path d="M516.429 453.53C520.639 458.081 518.418 465.48 512.398 466.961L482.243 474.381C471.486 477.028 460.125 475.485 450.464 470.066L395.343 439.144C400.269 435.03 405.202 430.743 410.116 426.289C425.736 412.132 439.716 397.628 451.645 383.503L516.429 453.53ZM155.854 90.1342C215.694 85.0672 268.313 129.471 273.38 189.311C274.981 208.219 271.641 226.405 264.438 242.599C273.644 270.645 301.851 296.154 331.545 297.056C316.378 310.537 300.71 326.968 285.652 345.627C285.215 343.691 284.797 341.768 284.387 339.873C278.607 313.178 252.877 292.432 226.478 288.216C211.461 298.52 193.648 305.19 174.204 306.836C114.363 311.903 61.7454 267.501 56.6781 207.661C51.6112 147.82 96.0136 95.2014 155.854 90.1342ZM203.727 152.628C175.228 128.58 134.618 129.831 113.022 155.422C91.4261 181.014 97.0223 221.257 125.521 245.306C154.02 269.355 194.63 268.104 216.226 242.512C237.822 216.92 232.225 176.677 203.727 152.628Z" fill="#31363A"/>
<path d="M681.462 604.25C676.553 613.482 673.606 623.1 659.362 624.534C651.499 625.304 624.851 627.757 607.704 628.375C595.738 629.516 582.302 631.287 564.024 633.538C531.043 638.317 535.068 637.612 512.576 641.095C360.215 669.296 364.347 672.421 302.378 686.846C296.897 688.312 295.845 688.765 291.644 688.296C278.743 686.859 277.451 667.835 277.329 661.743C277.097 650.082 311.151 604.624 317.809 553.643C317.982 552.405 318.133 551.187 318.282 549.949C318.281 549.912 318.292 549.874 318.303 549.837C318.42 549.255 318.56 548.672 318.737 548.126C320.916 540.618 326.648 536.099 333.028 533.772C333.811 533.493 334.782 533.173 335.803 533.001C335.814 532.982 335.826 532.982 335.838 532.981C343.983 530.055 421.699 492.464 621.15 464.747C676.247 457.091 712.89 453.298 736.005 454.12C748.985 453.592 761.76 453.369 764.584 454.298C769.115 455.769 773.064 461.815 773.393 469.885L773.394 469.904C776.118 483.511 689.133 589.836 681.462 604.25Z" fill="#C8235F"/>
<path d="M685.417 34.0373C688.539 32.4581 692.246 32.8977 694.978 35.0832C698.22 37.6781 699.304 42.1093 697.495 45.8479C653.174 137.432 544.298 280.502 385.927 429.26C373.86 440.594 355.612 441.085 339.061 441.429C311.505 442.001 286.7 464.665 277.588 490.301C288.086 507.028 294.158 526.817 294.158 548.023C294.158 608.078 245.473 656.762 185.419 656.763C171.067 656.763 157.364 653.98 144.82 648.928C137.075 650.328 130.423 652.542 125.596 655.643C93.3086 682.593 77.3405 693.764 58.334 696C18.6131 696 17.4182 664.051 45.4434 652.841C82.8144 643.187 93.1487 619.166 87.0977 594.523C80.4182 580.425 76.6807 564.661 76.6807 548.023C76.6812 487.969 125.365 439.285 185.419 439.285C205.67 439.285 224.627 444.822 240.861 454.463C266.691 445.571 289.68 420.698 290.387 393.004C290.812 376.336 291.389 357.928 302.886 345.852C459.376 181.473 594.544 80.0117 685.417 34.0373ZM233.608 500.725C209.93 477.047 169.359 479.226 142.991 505.594C116.623 531.962 114.444 572.532 138.122 596.211C161.801 619.889 202.37 617.709 228.738 591.341C255.106 564.973 257.286 524.403 233.608 500.725ZM359 345C346.85 345 337 354.85 337 367C337 379.15 346.85 389 359 389C371.15 389 381 379.15 381 367C381 354.85 371.15 345 359 345Z" fill="#31363A"/>
</g>
<defs>
<clipPath id="clip0_267_127">
<rect width="778" height="696" fill="white"/>
</clipPath>
</defs>
</svg>
