<svg width="69" height="69" viewBox="0 0 69 69" fill="none" xmlns="http://www.w3.org/2000/svg">
<path d="M32.439 44.6406V37.5703C32.439 36.696 33.7667 35.9857 34.6473 35.9802C35.5319 35.9802 36.8656 36.6921 36.8656 37.5703L36.8652 44.6406L36.8656 46.344L41.4516 46.3906C42.4819 46.3932 43.4709 45.9888 44.2004 45.2664C44.9299 44.5441 45.3398 43.5632 45.3398 42.5403V32.7397C45.3398 31.9134 44.9709 31.1297 44.3325 30.5996L36.8382 24.6492C35.5282 23.6084 33.6571 23.642 32.3859 24.7292L25.0527 30.5996C24.3842 31.114 23.9846 31.9001 23.9648 32.7397V42.5303C23.9648 44.6623 25.7056 46.3906 27.853 46.3906L36.8656 46.344L36.8652 44.6406H32.439Z" fill="white"/>
</svg>
