<svg width="69" height="69" viewBox="0 0 69 69" fill="none" xmlns="http://www.w3.org/2000/svg">
<path d="M44.5682 37.6266C47.4538 37.6266 49.791 39.9244 49.791 42.7594C49.791 45.5928 47.4538 47.8906 44.5682 47.8906C41.6843 47.8906 39.3454 45.5928 39.3454 42.7594C39.3454 39.9244 41.6843 37.6266 44.5682 37.6266ZM31.6925 40.5705C32.9564 40.5705 33.9824 41.5785 33.9824 42.8203C33.9824 44.0604 32.9564 45.07 31.6925 45.07H21.7059C20.442 45.07 19.416 44.0604 19.416 42.8203C19.416 41.5785 20.442 40.5705 21.7059 40.5705H31.6925ZM24.6388 20.8906C27.5244 20.8906 29.8616 23.1885 29.8616 26.0218C29.8616 28.8568 27.5244 31.1547 24.6388 31.1547C21.7549 31.1547 19.416 28.8568 19.416 26.0218C19.416 23.1885 21.7549 20.8906 24.6388 20.8906ZM47.5028 23.7737C48.765 23.7737 49.791 24.7817 49.791 26.0218C49.791 27.2636 48.765 28.2716 47.5028 28.2716H37.5162C36.2523 28.2716 35.2263 27.2636 35.2263 26.0218C35.2263 24.7817 36.2523 23.7737 37.5162 23.7737H47.5028Z" fill="white"/>
</svg>
