<svg width="69" height="69" viewBox="0 0 69 69" fill="none" xmlns="http://www.w3.org/2000/svg">
<path d="M39.6262 20.8906C43.7964 20.8906 46.1184 23.2936 46.1184 27.4111V41.3566C46.1184 45.5416 43.7964 47.8906 39.6262 47.8906H28.3119C24.2079 47.8906 21.8184 45.5416 21.8184 41.3566V27.4111C21.8184 23.2936 24.2079 20.8906 28.3119 20.8906H39.6262ZM28.6764 39.4396C28.2714 39.3991 27.8799 39.5881 27.6639 39.9391C27.4479 40.2766 27.4479 40.7221 27.6639 41.0731C27.8799 41.4106 28.2714 41.6131 28.6764 41.5591H39.2604C39.799 41.5051 40.2054 41.0448 40.2054 40.5061C40.2054 39.9526 39.799 39.4936 39.2604 39.4396H28.6764ZM39.2604 33.2823H28.6764C28.0945 33.2823 27.6234 33.7561 27.6234 34.3366C27.6234 34.9171 28.0945 35.3896 28.6764 35.3896H39.2604C39.8409 35.3896 40.3134 34.9171 40.3134 34.3366C40.3134 33.7561 39.8409 33.2823 39.2604 33.2823ZM32.7115 27.1681H28.6764V27.1816C28.0945 27.1816 27.6234 27.6541 27.6234 28.2346C27.6234 28.8151 28.0945 29.2876 28.6764 29.2876H32.7115C33.2934 29.2876 33.7659 28.8151 33.7659 28.2198C33.7659 27.6406 33.2934 27.1681 32.7115 27.1681Z" fill="white"/>
</svg>
