<svg width="738" height="738" viewBox="0 0 738 738" fill="none" xmlns="http://www.w3.org/2000/svg">
<circle cx="368.968" cy="368.968" r="368.968" fill="#0F1212"/>
<g clip-path="url(#clip0_288_172)">
<path d="M581.146 271.014C595.435 271.014 606.904 274.438 615.123 279.074C619.223 281.386 622.573 284.034 625.054 286.768C627.464 289.424 629.323 292.464 629.911 295.598L629.957 295.595C630.397 298.892 629.535 302.612 628.369 305.867C627.151 309.266 625.367 312.8 623.344 315.96C621.34 319.09 618.955 322.082 616.438 324.244C615.181 325.324 613.734 326.334 612.14 326.995C610.542 327.659 608.493 328.091 606.309 327.521L606.735 325.882L605.616 327.436C603.33 326.293 601.675 325.328 600.255 324.285C594.913 320.814 590.865 318.406 583.113 318.406C578.428 318.406 574.99 319.61 572.837 321.324C570.81 322.937 569.558 325.267 569.558 328.586C569.558 332.034 570.853 334.292 573.483 336.48C576.445 338.943 580.675 340.969 586.36 343.739L589.987 345.412L589.961 345.53C599.971 350.12 612.052 355.849 621.558 365.619C631.358 375.691 638.155 389.75 638.155 410.397C638.155 429.615 631.564 444.143 619.886 453.756C608.363 463.241 592.535 467.407 574.96 467.407C559.156 467.407 547.26 465.017 538.748 461.643C530.436 458.348 524.753 453.858 522.414 449.18L522.337 449.026L522.271 448.867C521.678 447.446 521.622 445.797 521.618 444.782C521.613 443.523 521.712 442.065 521.887 440.526C522.236 437.438 522.925 433.704 523.92 430.007C524.906 426.341 526.25 422.496 527.986 419.296C529.581 416.357 532.121 412.8 536.039 411.54L536.785 411.3H537.568C541.42 411.3 546.277 412.82 549.257 413.964L549.827 414.188L550.022 414.266L550.228 414.369C550.24 414.375 550.257 414.383 550.277 414.393H550.449L551.428 414.833C557.082 417.377 563.22 420.859 575.803 420.859C577.136 420.859 580.468 420.51 583.276 418.912C585.734 417.515 587.952 415.138 587.952 410.116C587.952 406.808 586.372 404.016 582.754 401.05C578.984 397.96 573.697 395.255 567.382 392.097L567.369 392.09L567.356 392.084C557.524 387.099 545.761 381.265 536.605 371.767C527.217 362.027 520.762 348.685 520.762 329.149C520.762 307.021 528.693 292.165 540.725 283.001C552.521 274.017 567.59 271.014 581.146 271.014Z" fill="#00BFAF" stroke="#0F1212" stroke-width="10"/>
<path d="M644.745 159.427C689.246 217.679 715.683 290.474 715.683 369.436C715.682 560.663 560.663 715.683 369.436 715.683C293.288 715.683 222.874 691.098 165.709 649.434L168.398 644.155C192.298 651.881 218.171 651.51 241.676 642.98L242.833 642.56L243.951 643.074C282.144 660.617 324.644 670.402 369.436 670.402C535.654 670.401 670.401 535.655 670.401 369.436C670.401 305.182 650.269 245.638 615.968 196.758L614.729 194.993L616.007 193.257C624.499 181.712 632.462 170.467 639.881 159.561L642.22 156.121L644.745 159.427ZM145.692 621.803H145.691C145.693 621.804 145.695 621.806 145.697 621.807L142.35 626.785C142.348 626.784 142.346 626.783 142.344 626.781C142.151 626.652 141.899 626.485 141.674 626.331L141.664 626.324L141.655 626.318L141.486 626.2C141.474 626.192 141.462 626.184 141.45 626.176V626.175L141.436 626.165L144.841 621.225C145.126 621.42 145.409 621.613 145.692 621.803ZM128.837 607.714L128.991 607.872C129.043 607.925 129.094 607.979 129.146 608.031L124.854 612.225L124.712 612.079V612.078C124.67 612.036 124.63 611.996 124.605 611.97C124.576 611.939 124.561 611.923 124.548 611.91H124.547C124.544 611.907 124.54 611.903 124.537 611.9L128.826 607.703C128.83 607.707 128.833 607.711 128.837 607.714ZM126.749 605.501C126.779 605.534 126.814 605.572 126.85 605.611L124.638 607.638L122.427 609.665C122.4 609.636 122.373 609.607 122.341 609.573C122.31 609.54 122.276 609.502 122.24 609.463L124.452 607.436L126.663 605.408C126.69 605.437 126.717 605.467 126.749 605.501ZM125.688 604.328L123.436 606.309L121.183 608.29C121.145 608.247 121.106 608.203 121.057 608.149L123.292 606.148L125.527 604.148C125.574 604.199 125.63 604.263 125.688 604.328ZM72.3066 203.014C70.1602 225.171 74.7664 247.501 85.2822 267.044L85.9102 268.211L85.4697 269.461C74.4587 300.737 68.4697 334.384 68.4697 369.436C68.4698 414.166 78.2252 456.609 95.7227 494.761L96.2363 495.879L95.8154 497.036C87.2716 520.537 86.886 546.409 94.5977 570.312L89.3174 572.998C47.7257 515.862 23.1876 445.51 23.1875 369.436C23.1875 308.409 38.9788 251.062 66.6992 201.266L72.3066 203.014ZM369.436 23.1877C447.406 23.1878 519.364 48.9645 577.243 92.4583L580.584 94.969L577.137 97.3313C566.25 104.793 555.014 112.797 543.451 121.352L541.729 122.626L539.965 121.41C491.493 88.0192 432.752 68.4701 369.436 68.47C315.143 68.47 264.217 82.8436 220.245 107.99L219.1 108.646L217.842 108.243C196.109 101.293 173.224 101.216 152.131 107.283L149.394 102.085C209.215 52.7936 285.873 23.1877 369.436 23.1877Z" fill="#00BFAF" stroke="#0F1212" stroke-width="6"/>
<path d="M455.941 378.078L516.532 443.573H516.533C525.644 453.422 520.836 469.431 507.811 472.636L507.812 472.637L479.609 479.576C467.084 482.658 453.854 480.862 442.604 474.552H442.604L391.052 445.632L378.4 438.534L389.534 429.235C394.038 425.474 398.548 421.552 403.044 417.476C417.341 404.518 430.105 391.271 440.961 378.417L448.26 369.775L455.941 378.078ZM171.11 100.524C232.1 95.36 285.788 140.222 291.707 200.965L291.838 202.403L291.977 204.22C293.163 221.518 290.323 238.213 284.248 253.355C288.252 263.36 295.292 272.992 304.135 280.411C313.981 288.672 325.435 293.683 336.578 294.021L361.715 294.785L342.918 311.491C329.177 323.704 314.9 338.665 301.134 355.724L288.151 371.811L283.598 351.646C283.179 349.792 282.779 347.958 282.395 346.18L282.178 345.232C277.656 326.551 259.719 310.907 240.09 306.344C225.432 315.595 208.4 321.569 189.96 323.13C128.489 328.335 74.4378 282.722 69.2324 221.252C64.0276 159.781 109.64 105.73 171.11 100.524ZM210.279 176.58C187.052 156.979 155.539 159.038 139.537 178C123.536 196.962 126.806 228.373 150.032 247.974H150.033C173.261 267.574 204.775 265.517 220.776 246.555C236.778 227.593 233.506 196.181 210.279 176.58Z" fill="#00BFAF" stroke="#0F1212" stroke-width="20"/>
<path d="M616.233 467.161C618.006 467.112 619.631 467.098 620.973 467.138C622.102 467.172 623.619 467.251 624.812 467.605C624.816 467.606 624.821 467.607 624.825 467.608C624.828 467.609 624.83 467.609 624.833 467.61L624.832 467.611C630.625 469.336 634.017 475.691 634.53 482.055C634.793 483.757 634.416 485.4 634.097 486.497C633.694 487.881 633.073 489.394 632.342 490.948C630.872 494.071 628.709 497.875 626.141 502.052C620.988 510.432 613.913 520.778 606.688 531.053C599.462 541.329 591.989 551.67 586.085 559.959C583.121 564.12 580.554 567.762 578.583 570.657C576.796 573.281 575.645 575.08 575.097 576.069L574.898 576.443C573.633 578.981 571.981 583.095 569.519 586.197C566.679 589.775 562.673 592.365 556.625 593.135L556.612 593.137C551.394 593.788 533.61 595.901 521.971 596.638C514.122 597.6 505.325 598.995 493.169 600.819C471.218 604.594 473.897 604.052 459.029 606.759C357.84 628.268 360.878 630.221 319.533 641.006C317.967 641.471 316.535 641.93 315.253 642.172C313.675 642.469 312.308 642.468 310.632 642.326V642.325C303.368 641.709 299.806 635.982 298.169 631.584C296.487 627.064 296.113 622.242 296.012 620.06V620.059C295.92 618.075 296.509 615.971 297.112 614.222C297.765 612.332 298.688 610.174 299.737 607.867C300.793 605.547 302.04 602.943 303.362 600.164C304.694 597.367 306.119 594.357 307.572 591.151C313.408 578.274 319.518 562.555 321.21 546.26L321.212 546.235L321.215 546.211C321.303 545.436 321.377 544.665 321.455 543.841C321.473 543.638 321.499 543.47 321.521 543.347C321.527 543.315 321.534 543.285 321.54 543.257C321.604 542.9 321.683 542.51 321.786 542.107L321.91 541.655C323.785 534.712 328.972 530.616 334.179 528.559L334.197 528.552L334.217 528.544C334.696 528.359 335.442 528.083 336.315 527.868C339.272 526.623 354.018 519.412 383.373 510.007C413.757 500.272 460.074 488.068 526.779 476.995C563.283 470.936 588.111 467.669 604.109 467.785C608.414 467.498 612.725 467.257 616.233 467.161Z" fill="#C8235F" stroke="#0F1212" stroke-width="10"/>
<path d="M662.729 49.099C669.055 45.899 676.442 46.7229 681.91 50.7875L682.434 51.1908L682.737 51.4398C689.049 56.7129 691.28 65.6971 687.542 73.4232V73.4242C645.345 160.619 542.557 295.4 393.984 434.954C386.494 441.989 377.406 445.335 368.702 447.027C361.184 448.488 353.36 448.816 346.426 448.981L343.512 449.044C324.317 449.443 305.472 464.684 296.924 483.88C306.081 500.091 311.308 518.818 311.308 538.742C311.308 600.433 261.296 650.443 199.606 650.444C185.957 650.444 172.86 647.987 160.746 643.491C155.819 644.576 152.071 645.995 149.514 647.531C120.129 672.037 103.018 684.59 81.9141 687.073L81.332 687.141H80.7461C60.1884 687.141 44.0976 678.562 41.1289 662.734C38.2776 647.53 49.3036 633.759 64.9756 627.491L65.5693 627.253L66.1885 627.093C81.9793 623.014 90.6011 616.298 94.9434 609.42C99.1233 602.799 100.204 594.66 98.1494 585.52C91.5737 571.279 87.9053 555.426 87.9053 538.742C87.9058 477.052 137.916 427.041 199.606 427.041C218.629 427.041 236.564 431.807 252.259 440.21C271.693 431.85 287.288 412.875 287.783 393.501L287.861 390.567C288.06 383.583 288.427 375.703 289.936 368.139C291.682 359.383 295.097 350.25 302.228 342.76C449.022 188.565 576.344 92.803 662.729 49.099ZM237.605 501.576C220.061 484.031 188.486 484.639 166.995 506.129C145.504 527.62 144.897 559.195 162.441 576.74L162.854 577.148C180.478 594.273 211.727 593.508 233.05 572.185C254.541 550.694 255.149 519.12 237.605 501.576ZM361.953 358.859C356.112 358.859 351.377 363.594 351.377 369.435C351.377 375.276 356.112 380.011 361.953 380.011C367.794 380.011 372.529 375.276 372.529 369.435C372.529 363.594 367.794 358.859 361.953 358.859Z" fill="#00BFAF" stroke="#0F1212" stroke-width="20"/>
<path d="M356.705 84.7867C371.22 84.7867 387.843 87.3771 401.014 95.2262C414.512 103.271 424.117 116.725 424.117 137.298C424.117 140.663 423.811 143.974 423.53 146.792L423.517 146.937L423.493 147.081C421.722 158.212 416.472 167.277 408.91 174.398C420.606 181.572 429.459 192.089 429.459 208.426C429.459 215.117 428.58 221.357 426.95 227.141L426.544 228.583L425.413 229.563L371.581 276.245L370.667 277.038L369.491 277.325C362.006 279.152 354.497 280.055 347.429 280.055C337.269 280.055 328.597 278.258 321.015 274.466L320.901 274.41L320.79 274.347C318.398 272.995 317.119 270.45 316.384 268.663C315.53 266.589 314.826 264.02 314.225 261.171C313.015 255.441 312.071 247.857 311.345 239.208C309.888 221.864 309.254 199.642 309.254 178.063C309.254 146.494 310.361 115.563 312.108 104.316C312.438 101.697 313.096 99.598 314.047 97.5895C314.108 97.4031 314.168 97.2361 314.226 97.0973C314.391 96.6971 314.594 96.2985 314.816 95.9283C315.037 95.5616 315.334 95.1232 315.715 94.692C315.934 94.4437 316.279 94.0854 316.753 93.734C318.372 92.2818 320.592 91.1503 322.802 90.2535C325.347 89.2204 328.441 88.2783 331.894 87.4801C338.805 85.8823 347.477 84.7868 356.705 84.7867ZM358.247 203.631C358.211 204.395 358.175 205.246 358.14 206.17C357.988 210.157 357.857 215.391 357.805 220.6C357.752 225.825 357.779 230.952 357.937 234.756C357.96 235.315 357.986 235.834 358.014 236.312C358.696 236.201 359.478 236.055 360.343 235.859C363.089 235.236 366.302 234.219 369.317 232.726C375.509 229.662 379.634 225.321 379.538 219.187V219.167C379.481 214.285 377.94 211.249 375.981 209.211C373.917 207.062 371.006 205.634 367.69 204.755C364.394 203.882 361.013 203.639 358.391 203.63C358.343 203.63 358.295 203.631 358.247 203.631ZM359.552 131.899C359.498 133.139 359.456 134.201 359.456 134.768V134.915L359.447 135.06C359.386 136.102 359.321 137.176 359.256 138.264V138.265C358.83 145.328 358.355 153.274 358.286 160.964C362.52 159.502 366.289 157.348 369.227 154.918C373.662 151.248 375.321 147.743 375.321 145.732C375.321 142.352 374.492 138.964 372.396 136.491C370.462 134.21 366.818 131.962 359.552 131.899Z" fill="#00BFAF" stroke="#0F1212" stroke-width="10"/>
</g>
<defs>
<clipPath id="clip0_288_172">
<rect width="686.495" height="686.495" fill="white" transform="translate(26.1875 26.1877)"/>
</clipPath>
</defs>
</svg>
