<svg width="69" height="69" viewBox="0 0 69 69" fill="none" xmlns="http://www.w3.org/2000/svg">
<path d="M31.2662 43.591C31.9249 43.4516 35.9387 43.4516 36.5974 43.591C37.1605 43.721 37.7695 44.0249 37.7695 44.6885C37.7367 45.3202 37.3661 45.8802 36.8541 46.2358C36.1901 46.7534 35.411 47.0812 34.5964 47.1993C34.1459 47.2577 33.7033 47.259 33.2685 47.1993C32.4527 47.0812 31.6735 46.7534 31.0108 46.2345C30.4975 45.8802 30.1269 45.3202 30.0941 44.6885C30.0941 44.0249 30.7031 43.721 31.2662 43.591ZM34.0096 20.8906C36.7505 20.8906 39.5503 22.1912 41.2135 24.349C42.2926 25.7385 42.7876 27.1266 42.7876 29.2844V29.8458C42.7876 31.5007 43.225 32.4761 44.1875 33.6001C44.9169 34.4282 45.15 35.4912 45.15 36.6445C45.15 37.7964 44.7716 38.8899 44.0133 39.7777C43.0207 40.842 41.6208 41.5215 40.192 41.6396C38.1216 41.8161 36.0499 41.9647 33.9507 41.9647C31.8501 41.9647 29.7797 41.8758 27.7093 41.6396C26.2793 41.5215 24.8793 40.842 23.888 39.7777C23.1298 38.8899 22.75 37.7964 22.75 36.6445C22.75 35.4912 22.9844 34.4282 23.7125 33.6001C24.7052 32.4761 25.1138 31.5007 25.1138 29.8458V29.2844C25.1138 27.0682 25.6664 25.619 26.8044 24.2004C28.4963 22.1315 31.2084 20.8906 33.8917 20.8906H34.0096Z" fill="white"/>
</svg>
